# xmcd
#
# Track frame offsets:
#	150
#	11145
#	23620
#	36148
#	45218
#	56008
#	69470
#	81678
#	93248
#	105695
#	117815
#	130205
#	142825
#	153455
#
# Disc length: 2145
#
# Revision: 2
# Processed by: cddbd v1.5.1PL0 Copyright (c) Steve Scherf et al.
# Submitted via: audiograbber 1.80
# Normalized: r1:DSETVAR1
#
DISCID=b0085f0e
DTITLE=Various Artist - 14 Golden Country Hits
DYEAR=1900
DGENRE=
TTITLE0=Jerry Lee Lewis - I can't seem to say goodbye
TTITLE1=Jeannie C. Riley - Good enough to bw your wife
TTITLE2=Webb Pierce - If you where me and I where you
TTITLE3=Ned Miller - Invisible tears
TTITLE4=Bill Justis - College man
TTITLE5=Patti Page - Tennessee waltz
TTITLE6=Dave Dudley - Wayward wind
TTITLE7=Patsy Cline - Never no more
TTITLE8=Jimmy C. Newman - Artificial rose
TTITLE9=Hank Locklin - It's a little more like heaven
TTITLE10=Conway Twitty - Crazy dreams
TTITLE11=Leroy van Dyke - Auctioneer
TTITLE12=James O'Gwynn - My name is mud
TTITLE13=Johnny Cash - Come in stranger
EXTD=
EXTT0=
EXTT1=
EXTT2=
EXTT3=
EXTT4=
EXTT5=
EXTT6=
EXTT7=
EXTT8=
EXTT9=
EXTT10=
EXTT11=
EXTT12=
EXTT13=
PLAYORDER=
